<svg height="48" width="48" xmlns="http://www.w3.org/2000/svg"><linearGradient id="a" gradientUnits="userSpaceOnUse" x1="19" x2="44" y1="19" y2="44"><stop offset="0" stop-color="#292c2f"/><stop offset="1" stop-color="#292c2f" stop-opacity="0"/></linearGradient><circle cx="24" cy="24" class="st0" r="20"/><path d="M4.012 23.5c-.004.167-.012.332-.012.5 0 11.08 8.92 20 20 20s20-8.92 20-20c0-.168-.008-.333-.012-.5A19.953 19.953 0 0124 43 19.95 19.95 0 014.012 23.5" fill="#0c69cf"/><path class="st1" d="M33.297 15.205l-22.07 8.977 8.246 8.248-.397.517 10.24 10.24a20 20 0 0014.512-17.435z" fill="url(#a)" opacity=".2"/><path d="M16.88 26.28l1.83 5.958s.192.582.368.72.354.152.354.152l12.202-15.7-1.99-.652z" fill="#bed6e8"/><path d="M19.879 27.56l-.617 5.396s-.003.129.176.16c.178.03.344-.16.344-.16l3.405-2.993z" fill="#9dbfd6"/><path d="M11.479 23.01s-.503.254-.478.693c.025.439.478.674.478.674l5.402 1.903 12.416-8.008s.24-.105.355.035c.115.14-.088.326-.088.326L19.88 27.56l8.278 6.157s.44.32.927.278c.487-.041.75-.681.75-.681l.309-1.097 1.063-4.338.86-3.95.492-2.435.668-3.931.252-1.505s.175-.631-.27-.919-1.067-.043-1.067-.043z" fill="#f1f7fc"/></svg>